<?xml version="1.0" encoding="UTF-8" standalone="no"?>
<!-- Generator: Adobe Illustrator 19.0.0, SVG Export Plug-In . SVG Version: 6.00 Build 0)  -->

<svg
   xmlns:dc="http://purl.org/dc/elements/1.1/"
   xmlns:cc="http://creativecommons.org/ns#"
   xmlns:rdf="http://www.w3.org/1999/02/22-rdf-syntax-ns#"
   xmlns:svg="http://www.w3.org/2000/svg"
   xmlns="http://www.w3.org/2000/svg"
   xmlns:sodipodi="http://sodipodi.sourceforge.net/DTD/sodipodi-0.dtd"
   xmlns:inkscape="http://www.inkscape.org/namespaces/inkscape"
   version="1.1"
   id="Layer_1"
   x="0px"
   y="0px"
   viewBox="0 0 64.452479 64.452479"
   xml:space="preserve"
   width="110"
   height="110"
   inkscape:version="0.91 r13725"
   sodipodi:docname="avatar.svg"><metadata
     id="metadata43"><rdf:RDF><cc:Work
         rdf:about=""><dc:format>image/svg+xml</dc:format><dc:type
           rdf:resource="http://purl.org/dc/dcmitype/StillImage" /><dc:title></dc:title></cc:Work></rdf:RDF></metadata><defs
     id="defs41" /><sodipodi:namedview
     pagecolor="#ffffff"
     bordercolor="#666666"
     borderopacity="1"
     objecttolerance="10"
     gridtolerance="10"
     guidetolerance="10"
     inkscape:pageopacity="0"
     inkscape:pageshadow="2"
     inkscape:window-width="1301"
     inkscape:window-height="744"
     id="namedview39"
     showgrid="false"
     inkscape:snap-bbox="true"
     inkscape:bbox-paths="true"
     inkscape:bbox-nodes="true"
     inkscape:snap-bbox-edge-midpoints="true"
     inkscape:snap-bbox-midpoints="true"
     inkscape:zoom="1.7953326"
     inkscape:cx="103.46815"
     inkscape:cy="36.566326"
     inkscape:window-x="65"
     inkscape:window-y="24"
     inkscape:window-maximized="1"
     inkscape:current-layer="Layer_1" /><g
     id="g3"
     style="fill:#0069d9;fill-opacity:1"
     transform="matrix(0.17578243,0,0,0.17578126,5.9200746,6.558918)"><g
       id="g5"
       style="fill:#0069d9;fill-opacity:1"><path
         d="M 149.996,0 C 67.157,0 0.001,67.158 0.001,149.997 c 0,82.837 67.156,150 149.995,150 82.839,0 150,-67.163 150,-150 C 299.996,67.156 232.835,0 149.996,0 Z m 0.457,220.763 0,-0.002 -0.916,0 -64.072,0 c 0.219783,-42.7871 0.28072,-42.70317 51.329,-64.684 -12.83,-6.502 -21.887,-22.178 -21.887,-40.512 0,-24.154 15.712,-43.738 35.089,-43.738 19.377,0 35.089,19.584 35.089,43.738 0,18.178 -8.896,33.756 -21.555,40.361 51.05283,21.51496 51.13535,21.7084 50.992,64.837 z"
         id="path7"
         inkscape:connector-curvature="0"
         style="fill:#0069d9;fill-opacity:1"
         sodipodi:nodetypes="ssssscccccsssccc" /></g></g><g
     id="g9"
     transform="translate(0,-235.54454)" /><g
     id="g11"
     transform="translate(0,-235.54454)" /><g
     id="g13"
     transform="translate(0,-235.54454)" /><g
     id="g15"
     transform="translate(0,-235.54454)" /><g
     id="g17"
     transform="translate(0,-235.54454)" /><g
     id="g19"
     transform="translate(0,-235.54454)" /><g
     id="g21"
     transform="translate(0,-235.54454)" /><g
     id="g23"
     transform="translate(0,-235.54454)" /><g
     id="g25"
     transform="translate(0,-235.54454)" /><g
     id="g27"
     transform="translate(0,-235.54454)" /><g
     id="g29"
     transform="translate(0,-235.54454)" /><g
     id="g31"
     transform="translate(0,-235.54454)" /><g
     id="g33"
     transform="translate(0,-235.54454)" /><g
     id="g35"
     transform="translate(0,-235.54454)" /><g
     id="g37"
     transform="translate(0,-235.54454)" /></svg>